<mxfile host="65bd71144e" modified="2020-12-09T10:06:42.615Z" agent="5.0 (Windows NT 10.0; Win64; x64) AppleWebKit/537.36 (KHTML, like Gecko) Code/1.51.1 Chrome/83.0.4103.122 Electron/9.3.3 Safari/537.36" etag="pSDW4tPWo9d5bJI2MWG7" version="13.10.0" type="embed">
    <diagram id="C5RBs43oDa-KdzZeNtuy" name="Page-1">
        <mxGraphModel dx="414" dy="546" grid="1" gridSize="10" guides="1" tooltips="1" connect="1" arrows="1" fold="1" page="1" pageScale="1" pageWidth="827" pageHeight="1169" math="0" shadow="0">
            <root>
                <mxCell id="WIyWlLk6GJQsqaUBKTNV-0"/>
                <mxCell id="WIyWlLk6GJQsqaUBKTNV-1" parent="WIyWlLk6GJQsqaUBKTNV-0"/>
                <mxCell id="WIyWlLk6GJQsqaUBKTNV-2" value="" style="rounded=0;html=1;jettySize=auto;orthogonalLoop=1;fontSize=11;endArrow=block;endFill=0;endSize=8;strokeWidth=1;shadow=0;labelBackgroundColor=none;edgeStyle=orthogonalEdgeStyle;entryX=0.5;entryY=0;entryDx=0;entryDy=0;" parent="WIyWlLk6GJQsqaUBKTNV-1" source="WIyWlLk6GJQsqaUBKTNV-3" target="nHU2NljZmvbzEuZgI8tX-0" edge="1">
                    <mxGeometry relative="1" as="geometry">
                        <mxPoint x="180" y="190" as="targetPoint"/>
                    </mxGeometry>
                </mxCell>
                <mxCell id="WIyWlLk6GJQsqaUBKTNV-3" value="dallocate frame" style="rounded=1;whiteSpace=wrap;html=1;fontSize=12;glass=0;strokeWidth=1;shadow=0;" parent="WIyWlLk6GJQsqaUBKTNV-1" vertex="1">
                    <mxGeometry x="120" y="120" width="120" height="40" as="geometry"/>
                </mxCell>
                <mxCell id="nHU2NljZmvbzEuZgI8tX-0" value="remove from list" style="rounded=0;whiteSpace=wrap;html=1;" parent="WIyWlLk6GJQsqaUBKTNV-1" vertex="1">
                    <mxGeometry x="120" y="210" width="120" height="60" as="geometry"/>
                </mxCell>
                <mxCell id="7" value="" style="rounded=0;html=1;jettySize=auto;orthogonalLoop=1;fontSize=11;endArrow=block;endFill=0;endSize=8;strokeWidth=1;shadow=0;labelBackgroundColor=none;edgeStyle=orthogonalEdgeStyle;exitX=0.5;exitY=1;exitDx=0;exitDy=0;entryX=0.5;entryY=0;entryDx=0;entryDy=0;" parent="WIyWlLk6GJQsqaUBKTNV-1" source="nHU2NljZmvbzEuZgI8tX-0" target="42" edge="1">
                    <mxGeometry relative="1" as="geometry">
                        <mxPoint x="180.0000000000001" y="312" as="targetPoint"/>
                        <mxPoint x="190" y="150" as="sourcePoint"/>
                    </mxGeometry>
                </mxCell>
                <mxCell id="42" value="free frame struct" style="rounded=0;whiteSpace=wrap;html=1;" vertex="1" parent="WIyWlLk6GJQsqaUBKTNV-1">
                    <mxGeometry x="120" y="320" width="120" height="60" as="geometry"/>
                </mxCell>
                <mxCell id="43" value="" style="rounded=0;html=1;jettySize=auto;orthogonalLoop=1;fontSize=11;endArrow=block;endFill=0;endSize=8;strokeWidth=1;shadow=0;labelBackgroundColor=none;edgeStyle=orthogonalEdgeStyle;exitX=0.5;exitY=1;exitDx=0;exitDy=0;entryX=0.5;entryY=0;entryDx=0;entryDy=0;" edge="1" parent="WIyWlLk6GJQsqaUBKTNV-1" source="42" target="45">
                    <mxGeometry relative="1" as="geometry">
                        <mxPoint x="180.0000000000001" y="422" as="targetPoint"/>
                        <mxPoint x="190" y="260" as="sourcePoint"/>
                    </mxGeometry>
                </mxCell>
                <mxCell id="45" value="palloc_free_page" style="rounded=0;whiteSpace=wrap;html=1;" vertex="1" parent="WIyWlLk6GJQsqaUBKTNV-1">
                    <mxGeometry x="120" y="430" width="120" height="60" as="geometry"/>
                </mxCell>
                <mxCell id="46" value="" style="rounded=0;html=1;jettySize=auto;orthogonalLoop=1;fontSize=11;endArrow=block;endFill=0;endSize=8;strokeWidth=1;shadow=0;labelBackgroundColor=none;edgeStyle=orthogonalEdgeStyle;exitX=0.5;exitY=1;exitDx=0;exitDy=0;entryX=0.5;entryY=0;entryDx=0;entryDy=0;" edge="1" parent="WIyWlLk6GJQsqaUBKTNV-1" source="45" target="47">
                    <mxGeometry relative="1" as="geometry">
                        <mxPoint x="180.0000000000001" y="532" as="targetPoint"/>
                        <mxPoint x="190" y="370" as="sourcePoint"/>
                    </mxGeometry>
                </mxCell>
                <mxCell id="47" value="return" style="rounded=1;whiteSpace=wrap;html=1;fontSize=12;glass=0;strokeWidth=1;shadow=0;" vertex="1" parent="WIyWlLk6GJQsqaUBKTNV-1">
                    <mxGeometry x="120" y="544.5" width="120" height="40" as="geometry"/>
                </mxCell>
            </root>
        </mxGraphModel>
    </diagram>
</mxfile>